<?xml version="1.0" encoding="UTF-8" standalone="no"?>
<!DOCTYPE svg PUBLIC "-//W3C//DTD SVG 1.0//EN" "http://www.w3.org/TR/2001/PR-SVG-20010719/DTD/svg10.dtd">
<svg width="36cm" height="12cm" viewBox="-4 0 36 12">
  <rect style="fill: #ffffff" x="2.05" y="0.995" width="1.95" height="1.95"/>
  <rect style="fill: none; fill-opacity:0; stroke-width: 0.1; stroke: #000000" x="2.05" y="0.995" width="1.95" height="1.95"/>
  <rect style="fill: #ffffff" x="4" y="0.995" width="1.95" height="1.95"/>
  <rect style="fill: none; fill-opacity:0; stroke-width: 0.1; stroke: #000000" x="4" y="0.995" width="1.95" height="1.95"/>
  <rect style="fill: #ffffff" x="5.95" y="0.995" width="1.95" height="1.95"/>
  <rect style="fill: none; fill-opacity:0; stroke-width: 0.1; stroke: #000000" x="5.95" y="0.995" width="1.95" height="1.95"/>
  <rect style="fill: #ffffff" x="7.9" y="0.995" width="1.95" height="1.95"/>
  <rect style="fill: none; fill-opacity:0; stroke-width: 0.1; stroke: #000000" x="7.9" y="0.995" width="1.95" height="1.95"/>
  <rect style="fill: #ffffff" x="9.85" y="0.995" width="1.95" height="1.95"/>
  <rect style="fill: none; fill-opacity:0; stroke-width: 0.1; stroke: #000000" x="9.85" y="0.995" width="1.95" height="1.95"/>
  <rect style="fill: #ffffff" x="11.815" y="0.995" width="1.95" height="1.95"/>
  <rect style="fill: none; fill-opacity:0; stroke-width: 0.1; stroke: #000000" x="11.815" y="0.995" width="1.95" height="1.95"/>
  <rect style="fill: #ffffff" x="13.765" y="0.995" width="1.95" height="1.95"/>
  <rect style="fill: none; fill-opacity:0; stroke-width: 0.1; stroke: #000000" x="13.765" y="0.995" width="1.95" height="1.95"/>
  <rect style="fill: #ffffff" x="15.715" y="0.995" width="1.95" height="1.95"/>
  <rect style="fill: none; fill-opacity:0; stroke-width: 0.1; stroke: #000000" x="15.715" y="0.995" width="1.95" height="1.95"/>
  <rect style="fill: #ffffff" x="17.665" y="0.995" width="1.95" height="1.95"/>
  <rect style="fill: none; fill-opacity:0; stroke-width: 0.1; stroke: #000000" x="17.665" y="0.995" width="1.95" height="1.95"/>
  <rect style="fill: #ffffff" x="19.615" y="0.995" width="1.95" height="1.95"/>
  <rect style="fill: none; fill-opacity:0; stroke-width: 0.1; stroke: #000000" x="19.615" y="0.995" width="1.95" height="1.95"/>
  <rect style="fill: #ffffff" x="21.53" y="0.995" width="1.95" height="1.95"/>
  <rect style="fill: none; fill-opacity:0; stroke-width: 0.1; stroke: #000000" x="21.53" y="0.995" width="1.95" height="1.95"/>
  <rect style="fill: #ffffff" x="23.48" y="0.995" width="1.95" height="1.95"/>
  <rect style="fill: none; fill-opacity:0; stroke-width: 0.1; stroke: #000000" x="23.48" y="0.995" width="1.95" height="1.95"/>
  <rect style="fill: #ffffff" x="25.43" y="0.995" width="1.95" height="1.95"/>
  <rect style="fill: none; fill-opacity:0; stroke-width: 0.1; stroke: #000000" x="25.43" y="0.995" width="1.95" height="1.95"/>
  <rect style="fill: #ffffff" x="27.38" y="0.995" width="1.95" height="1.95"/>
  <rect style="fill: none; fill-opacity:0; stroke-width: 0.1; stroke: #000000" x="27.38" y="0.995" width="1.95" height="1.95"/>
  <rect style="fill: #ffffff" x="29.33" y="0.995" width="1.95" height="1.95"/>
  <rect style="fill: none; fill-opacity:0; stroke-width: 0.1; stroke: #000000" x="29.33" y="0.995" width="1.95" height="1.95"/>
  <text style="fill: #000000; font-size: 0.8 cm; length: 0.4 cm; font-family: sans; font-style: normal; font-weight: normal" x="6.7801" y="0.8">A</text>
  <text style="fill: #000000; font-size: 0.8 cm; length: 0.4025 cm; font-family: sans; font-style: normal; font-weight: normal" x="12.64" y="0.72">B</text>
  <text style="fill: #000000; font-size: 0.8 cm; length: 0.4075 cm; font-family: sans; font-style: normal; font-weight: normal" x="24.2801" y="0.75">C</text>
  <rect style="fill: #ffffff" x="2.0201" y="7.2125" width="1.95" height="1.95"/>
  <rect style="fill: none; fill-opacity:0; stroke-width: 0.1; stroke: #000000" x="2.0201" y="7.2125" width="1.95" height="1.95"/>
  <rect style="fill: #ffffff" x="3.9701" y="7.2125" width="1.95" height="1.95"/>
  <rect style="fill: none; fill-opacity:0; stroke-width: 0.1; stroke: #000000" x="3.9701" y="7.2125" width="1.95" height="1.95"/>
  <rect style="fill: #ffffff" x="5.9201" y="7.2125" width="1.95" height="1.95"/>
  <rect style="fill: none; fill-opacity:0; stroke-width: 0.1; stroke: #000000" x="5.9201" y="7.2125" width="1.95" height="1.95"/>
  <rect style="fill: #ffffff" x="7.8701" y="7.2125" width="1.95" height="1.95"/>
  <rect style="fill: none; fill-opacity:0; stroke-width: 0.1; stroke: #000000" x="7.8701" y="7.2125" width="1.95" height="1.95"/>
  <rect style="fill: #ffffff" x="9.8201" y="7.2125" width="1.95" height="1.95"/>
  <rect style="fill: none; fill-opacity:0; stroke-width: 0.1; stroke: #000000" x="9.8201" y="7.2125" width="1.95" height="1.95"/>
  <rect style="fill: #ffffff" x="11.7851" y="7.2125" width="1.95" height="1.95"/>
  <rect style="fill: none; fill-opacity:0; stroke-width: 0.1; stroke: #000000" x="11.7851" y="7.2125" width="1.95" height="1.95"/>
  <rect style="fill: #ffffff" x="13.7351" y="7.2125" width="1.95" height="1.95"/>
  <rect style="fill: none; fill-opacity:0; stroke-width: 0.1; stroke: #000000" x="13.7351" y="7.2125" width="1.95" height="1.95"/>
  <rect style="fill: #ffffff" x="15.6851" y="7.2125" width="1.95" height="1.95"/>
  <rect style="fill: none; fill-opacity:0; stroke-width: 0.1; stroke: #000000" x="15.6851" y="7.2125" width="1.95" height="1.95"/>
  <rect style="fill: #ffffff" x="17.6351" y="7.2125" width="1.95" height="1.95"/>
  <rect style="fill: none; fill-opacity:0; stroke-width: 0.1; stroke: #000000" x="17.6351" y="7.2125" width="1.95" height="1.95"/>
  <rect style="fill: #ffffff" x="19.5851" y="7.2125" width="1.95" height="1.95"/>
  <rect style="fill: none; fill-opacity:0; stroke-width: 0.1; stroke: #000000" x="19.5851" y="7.2125" width="1.95" height="1.95"/>
  <rect style="fill: #ffffff" x="21.5001" y="7.2125" width="1.95" height="1.95"/>
  <rect style="fill: none; fill-opacity:0; stroke-width: 0.1; stroke: #000000" x="21.5001" y="7.2125" width="1.95" height="1.95"/>
  <rect style="fill: #ffffff" x="23.4501" y="7.2125" width="1.95" height="1.95"/>
  <rect style="fill: none; fill-opacity:0; stroke-width: 0.1; stroke: #000000" x="23.4501" y="7.2125" width="1.95" height="1.95"/>
  <rect style="fill: #ffffff" x="25.4001" y="7.2125" width="1.95" height="1.95"/>
  <rect style="fill: none; fill-opacity:0; stroke-width: 0.1; stroke: #000000" x="25.4001" y="7.2125" width="1.95" height="1.95"/>
  <rect style="fill: #ffffff" x="27.3501" y="7.2125" width="1.95" height="1.95"/>
  <rect style="fill: none; fill-opacity:0; stroke-width: 0.1; stroke: #000000" x="27.3501" y="7.2125" width="1.95" height="1.95"/>
  <rect style="fill: #ffffff" x="29.3001" y="7.2125" width="1.95" height="1.95"/>
  <rect style="fill: none; fill-opacity:0; stroke-width: 0.1; stroke: #000000" x="29.3001" y="7.2125" width="1.95" height="1.95"/>
  <text style="fill: #000000; font-size: 0.8 cm; length: 0.4 cm; font-family: sans; font-style: normal; font-weight: normal" x="6.7502" y="7.0175">A</text>
  <text style="fill: #000000; font-size: 0.8 cm; length: 0.4025 cm; font-family: sans; font-style: normal; font-weight: normal" x="12.6101" y="6.9375">B</text>
  <text style="fill: #000000; font-size: 0.8 cm; length: 0.4075 cm; font-family: sans; font-style: normal; font-weight: normal" x="24.2502" y="6.9675">C</text>
  <text style="fill: #000000; font-size: 0.8 cm; length: 0.345 cm; font-family: sans; font-style: normal; font-weight: normal" x="6.775" y="2.17">x</text>
  <text style="fill: #000000; font-size: 0.8 cm; length: 0.345 cm; font-family: sans; font-style: normal; font-weight: normal" x="12.64" y="2.17">y</text>
  <text style="fill: #000000; font-size: 0.8 cm; length: 0.515 cm; font-family: sans; font-style: normal; font-weight: normal" x="24.105" y="2.22">-z</text>
  <text style="fill: #000000; font-size: 0.8 cm; length: 0.345 cm; font-family: sans; font-style: normal; font-weight: normal" x="6.7201" y="8.4375">x</text>
  <rect style="fill: #ffffff" x="-3.8299" y="0.995" width="1.95" height="1.95"/>
  <rect style="fill: none; fill-opacity:0; stroke-width: 0.1; stroke: #000000" x="-3.8299" y="0.995" width="1.95" height="1.95"/>
  <rect style="fill: #ffffff" x="-1.8799" y="0.995" width="1.95" height="1.95"/>
  <rect style="fill: none; fill-opacity:0; stroke-width: 0.1; stroke: #000000" x="-1.8799" y="0.995" width="1.95" height="1.95"/>
  <rect style="fill: #ffffff" x="0.0701003" y="0.995" width="1.95" height="1.95"/>
  <rect style="fill: none; fill-opacity:0; stroke-width: 0.1; stroke: #000000" x="0.0701003" y="0.995" width="1.95" height="1.95"/>
  <rect style="fill: #ffffff" x="-3.8399" y="7.19" width="1.95" height="1.95"/>
  <rect style="fill: none; fill-opacity:0; stroke-width: 0.1; stroke: #000000" x="-3.8399" y="7.19" width="1.95" height="1.95"/>
  <rect style="fill: #ffffff" x="-1.8899" y="7.19" width="1.95" height="1.95"/>
  <rect style="fill: none; fill-opacity:0; stroke-width: 0.1; stroke: #000000" x="-1.8899" y="7.19" width="1.95" height="1.95"/>
  <rect style="fill: #ffffff" x="0.0601003" y="7.19" width="1.95" height="1.95"/>
  <rect style="fill: none; fill-opacity:0; stroke-width: 0.1; stroke: #000000" x="0.0601003" y="7.19" width="1.95" height="1.95"/>
  <text style="fill: #000000; font-size: 0.8 cm; length: 0.4 cm; font-family: sans; font-style: normal; font-weight: normal" x="-3.0799" y="2.2375">A</text>
  <text style="fill: #000000; font-size: 0.8 cm; length: 0.4025 cm; font-family: sans; font-style: normal; font-weight: normal" x="-1.1299" y="2.2375">B</text>
  <text style="fill: #000000; font-size: 0.8 cm; length: 0.4075 cm; font-family: sans; font-style: normal; font-weight: normal" x="0.8451" y="2.22">C</text>
  <text style="fill: #000000; font-size: 0.8 cm; length: 0.525 cm; font-family: sans; font-style: normal; font-weight: normal" x="-3.2199" y="0.8">IP</text>
  <text style="fill: #000000; font-size: 0.8 cm; length: 0.515 cm; font-family: sans; font-style: normal; font-weight: normal" x="24.1201" y="8.4375">-z</text>
  <text style="fill: #000000; font-size: 0.8 cm; length: 1.2675 cm; font-family: sans; font-style: normal; font-weight: normal" x="12.1101" y="8.3875">y - x</text>
  <text style="fill: #000000; font-size: 0.8 cm; length: 0.4 cm; font-family: sans; font-style: normal; font-weight: normal" x="-3.0799" y="8.405">A</text>
  <text style="fill: #000000; font-size: 0.8 cm; length: 0.4025 cm; font-family: sans; font-style: normal; font-weight: normal" x="-1.1299" y="8.405">B</text>
  <text style="fill: #000000; font-size: 0.8 cm; length: 0.4075 cm; font-family: sans; font-style: normal; font-weight: normal" x="0.8451" y="8.3875">C</text>
  <text style="fill: #000000; font-size: 0.8 cm; length: 0.525 cm; font-family: sans; font-style: normal; font-weight: normal" x="2.7801" y="10">IP</text>
  <text style="fill: #000000; font-size: 0.8 cm; length: 2.5575 cm; font-family: sans; font-style: normal; font-weight: normal" x="2.7801" y="10.8">(if y &gt; x)</text>
  <text style="fill: #000000; font-size: 0.8 cm; length: 0.525 cm; font-family: sans; font-style: normal; font-weight: normal" x="16.4801" y="9.95">IP</text>
  <text style="fill: #000000; font-size: 0.8 cm; length: 3.0475 cm; font-family: sans; font-style: normal; font-weight: normal" x="16.4801" y="10.75">(if y &lt;= x)</text>
  <text style="fill: #000000; font-size: 0.8 cm; length: 0.3075 cm; font-family: sans; font-style: normal; font-weight: normal" x="28.1301" y="6.9">z</text>
  <text style="fill: #000000; font-size: 0.8 cm; length: 0.3075 cm; font-family: sans; font-style: normal; font-weight: normal" x="28.1701" y="0.6875">z</text>
  <text style="fill: #000000; font-size: 0.8 cm; length: 0.37 cm; font-family: sans; font-style: normal; font-weight: normal" x="28.0751" y="8.3875">q</text>
  <text style="fill: #000000; font-size: 0.8 cm; length: 0.37 cm; font-family: sans; font-style: normal; font-weight: normal" x="16.4701" y="0.5875">q</text>
  <text style="fill: #000000; font-size: 0.8 cm; length: 0.37 cm; font-family: sans; font-style: normal; font-weight: normal" x="16.5101" y="6.7825">q</text>
</svg>
